HIERARCHY
ROOT Hips
{
	OFFSET 0.000000 83.214638 0.000000
	CHANNELS 6 Xposition Yposition Zposition Xrotation Yrotation Zrotation
	JOINT Pelvis
	{
		OFFSET 0.000000 0.000000 0.000000
		CHANNELS 3 Xrotation Yrotation Zrotation
		JOINT LeftUpLeg
		{
			OFFSET 8.479700 -4.795502 -0.379100
			CHANNELS 3 Xrotation Yrotation Zrotation
			JOINT LeftLeg
			{
				OFFSET 0.024144 -32.555107 0.112900
				CHANNELS 3 Xrotation Yrotation Zrotation
				JOINT LeftFoot
				{
					OFFSET -0.024144 -32.638630 -3.012600
					CHANNELS 3 Xrotation Yrotation Zrotation
					JOINT LeftToeBase
					{
						OFFSET 0.970200 -13.225400 11.864200
						CHANNELS 3 Xrotation Yrotation Zrotation
						End Site
						{
							OFFSET 0.000000 12.319262 0.000000
						}
					}
					JOINT LFootTongue
					{
						OFFSET 1.142400 -1.059800 6.665200
						CHANNELS 3 Xrotation Yrotation Zrotation
						End Site
						{
							OFFSET 0.000000 12.319262 0.000000
						}
					}
				}
				JOINT LeftPantLeg
				{
					OFFSET 0.918482 -16.533964 -2.284700
					CHANNELS 3 Xrotation Yrotation Zrotation
					End Site
					{
						OFFSET 0.350399 24.744368 0.000000
					}
				}
			}
		}
		JOINT RightUpLeg
		{
			OFFSET -8.479700 -4.795502 -0.379100
			CHANNELS 3 Xrotation Yrotation Zrotation
			JOINT RightLeg
			{
				OFFSET -0.023144 -32.555092 0.112900
				CHANNELS 3 Xrotation Yrotation Zrotation
				JOINT RightFoot
				{
					OFFSET 0.023144 -32.638641 -3.012700
					CHANNELS 3 Xrotation Yrotation Zrotation
					JOINT RightToeBase
					{
						OFFSET -0.970200 -13.225400 11.864200
						CHANNELS 3 Xrotation Yrotation Zrotation
						End Site
						{
							OFFSET 0.000000 12.319244 0.000000
						}
					}
					JOINT RFootTongue
					{
						OFFSET -1.142200 -1.059800 6.665200
						CHANNELS 3 Xrotation Yrotation Zrotation
						End Site
						{
							OFFSET 0.000000 12.319243 0.000000
						}
					}
				}
				JOINT RightPantLeg
				{
					OFFSET -0.919482 -16.533978 -2.284800
					CHANNELS 3 Xrotation Yrotation Zrotation
					End Site
					{
						OFFSET -0.350400 24.744419 0.000000
					}
				}
			}
		}
	}
	JOINT Spine
	{
		OFFSET 0.000000 7.722000 1.166200
		CHANNELS 3 Xrotation Yrotation Zrotation
		JOINT Spine1
		{
			OFFSET 0.000000 12.024101 0.248800
			CHANNELS 3 Xrotation Yrotation Zrotation
			JOINT Spine2
			{
				OFFSET 0.000000 11.502998 -0.491200
				CHANNELS 3 Xrotation Yrotation Zrotation
				JOINT Neck
				{
					OFFSET 0.000000 18.430702 -3.123100
					CHANNELS 3 Xrotation Yrotation Zrotation
					JOINT Head
					{
						OFFSET 0.000000 9.051102 1.034000
						CHANNELS 3 Xrotation Yrotation Zrotation
						JOINT HairB
						{
							OFFSET 0.208400 24.786102 24.822300
							CHANNELS 3 Xrotation Yrotation Zrotation
							End Site
							{
								OFFSET 0.000000 32.263779 0.000000
							}
						}
						JOINT HairA
						{
							OFFSET -7.081100 24.428299 23.196600
							CHANNELS 3 Xrotation Yrotation Zrotation
							End Site
							{
								OFFSET 0.000000 32.263779 0.000000
							}
						}
						JOINT Hat
						{
							OFFSET 16.728800 15.048294 -15.439601
							CHANNELS 3 Xrotation Yrotation Zrotation
							End Site
							{
								OFFSET 0.000000 32.263779 0.000000
							}
						}
					}
				}
				JOINT LeftShoulder
				{
					OFFSET 6.197800 13.665199 -4.064700
					CHANNELS 3 Xrotation Yrotation Zrotation
					JOINT LeftArm
					{
						OFFSET 7.778100 -0.187103 -1.709300
						CHANNELS 3 Xrotation Yrotation Zrotation
						JOINT LeftForeArm
						{
							OFFSET 22.049376 0.000000 0.000000
							CHANNELS 3 Xrotation Yrotation Zrotation
							JOINT LeftHand
							{
								OFFSET 23.009392 0.000000 0.000000
								CHANNELS 3 Xrotation Yrotation Zrotation
								JOINT LeftHandThumb1
								{
									OFFSET 3.507191 -2.063065 3.133727
									CHANNELS 3 Xrotation Yrotation Zrotation
									JOINT LeftHandThumb2
									{
										OFFSET 3.101337 -1.790558 1.790558
										CHANNELS 3 Xrotation Yrotation Zrotation
										JOINT LeftHandThumb3
										{
											OFFSET 3.058640 -1.765907 1.765906
											CHANNELS 3 Xrotation Yrotation Zrotation
											End Site
											{
												OFFSET -0.415260 3.926476 -0.049563
											}
										}
									}
								}
								JOINT LeftHandIndex1
								{
									OFFSET 11.334419 -0.901459 3.706815
									CHANNELS 3 Xrotation Yrotation Zrotation
									JOINT LeftHandIndex2
									{
										OFFSET 3.283112 0.000000 0.000000
										CHANNELS 3 Xrotation Yrotation Zrotation
										JOINT LeftHandIndex3
										{
											OFFSET 3.323853 0.000000 0.000000
											CHANNELS 3 Xrotation Yrotation Zrotation
											End Site
											{
												OFFSET -1.135597 3.097809 0.402452
											}
										}
									}
								}
								JOINT LeftHandMiddle1
								{
									OFFSET 11.335861 0.000000 0.000000
									CHANNELS 3 Xrotation Yrotation Zrotation
									JOINT LeftHandMiddle2
									{
										OFFSET 3.410492 0.000000 0.000000
										CHANNELS 3 Xrotation Yrotation Zrotation
										JOINT LeftHandMiddle3
										{
											OFFSET 3.312172 0.000000 0.000000
											CHANNELS 3 Xrotation Yrotation Zrotation
											End Site
											{
												OFFSET -1.150200 3.080154 0.400270
											}
										}
									}
								}
								JOINT LeftHandRing1
								{
									OFFSET 11.514786 -0.013176 -3.003090
									CHANNELS 3 Xrotation Yrotation Zrotation
									JOINT LeftHandRing2
									{
										OFFSET 3.053307 0.000000 0.000000
										CHANNELS 3 Xrotation Yrotation Zrotation
										JOINT LeftHandRing3
										{
											OFFSET 3.295807 0.000000 0.000000
											CHANNELS 3 Xrotation Yrotation Zrotation
											End Site
											{
												OFFSET -1.281006 3.013344 0.375733
											}
										}
									}
								}
								JOINT LeftHandPinky1
								{
									OFFSET 10.518692 -0.960396 -5.730441
									CHANNELS 3 Xrotation Yrotation Zrotation
									JOINT LeftHandPinky2
									{
										OFFSET 2.861649 0.000000 0.000000
										CHANNELS 3 Xrotation Yrotation Zrotation
										JOINT LeftHandPinky3
										{
											OFFSET 2.863380 0.000000 0.000000
											CHANNELS 3 Xrotation Yrotation Zrotation
											End Site
											{
												OFFSET -0.843597 2.711159 0.369971
											}
										}
									}
								}
							}
							JOINT LSleeve
							{
								OFFSET 6.676277 -0.344902 -1.011730
								CHANNELS 3 Xrotation Yrotation Zrotation
								End Site
								{
									OFFSET 0.000000 14.885353 0.000000
								}
							}
						}
					}
				}
				JOINT RightShoulder
				{
					OFFSET -6.197800 13.665199 -4.064700
					CHANNELS 3 Xrotation Yrotation Zrotation
					JOINT RightArm
					{
						OFFSET -7.778100 -0.187103 -1.709300
						CHANNELS 3 Xrotation Yrotation Zrotation
						JOINT RightForeArm
						{
							OFFSET -22.049376 0.000000 0.000000
							CHANNELS 3 Xrotation Yrotation Zrotation
							JOINT RightHand
							{
								OFFSET -23.009392 0.000000 0.000000
								CHANNELS 3 Xrotation Yrotation Zrotation
								JOINT RightHandThumb1
								{
									OFFSET -3.507191 -2.063065 3.133727
									CHANNELS 3 Xrotation Yrotation Zrotation
									JOINT RightHandThumb2
									{
										OFFSET -3.101337 -1.790558 1.790558
										CHANNELS 3 Xrotation Yrotation Zrotation
										JOINT RightHandThumb3
										{
											OFFSET -3.058640 -1.765907 1.765906
											CHANNELS 3 Xrotation Yrotation Zrotation
											End Site
											{
												OFFSET 0.415260 3.926476 -0.049563
											}
										}
									}
								}
								JOINT RightHandIndex1
								{
									OFFSET -11.334419 -0.901459 3.706815
									CHANNELS 3 Xrotation Yrotation Zrotation
									JOINT RightHandIndex2
									{
										OFFSET -3.283112 0.000000 0.000000
										CHANNELS 3 Xrotation Yrotation Zrotation
										JOINT RightHandIndex3
										{
											OFFSET -3.323853 0.000000 0.000000
											CHANNELS 3 Xrotation Yrotation Zrotation
											End Site
											{
												OFFSET 1.135597 3.097809 0.402452
											}
										}
									}
								}
								JOINT RightHandMiddle1
								{
									OFFSET -11.335861 0.000000 0.000000
									CHANNELS 3 Xrotation Yrotation Zrotation
									JOINT RightHandMiddle2
									{
										OFFSET -3.410492 0.000000 0.000000
										CHANNELS 3 Xrotation Yrotation Zrotation
										JOINT RightHandMiddle3
										{
											OFFSET -3.312172 0.000000 0.000000
											CHANNELS 3 Xrotation Yrotation Zrotation
											End Site
											{
												OFFSET 1.150200 3.080154 0.400270
											}
										}
									}
								}
								JOINT RightHandRing1
								{
									OFFSET -11.514786 -0.013176 -3.003090
									CHANNELS 3 Xrotation Yrotation Zrotation
									JOINT RightHandRing2
									{
										OFFSET -3.053307 0.000000 0.000000
										CHANNELS 3 Xrotation Yrotation Zrotation
										JOINT RightHandRing3
										{
											OFFSET -3.295807 0.000000 0.000000
											CHANNELS 3 Xrotation Yrotation Zrotation
											End Site
											{
												OFFSET 1.281006 3.013344 0.375733
											}
										}
									}
								}
								JOINT RightHandPinky1
								{
									OFFSET -10.518692 -0.960396 -5.730441
									CHANNELS 3 Xrotation Yrotation Zrotation
									JOINT RightHandPinky2
									{
										OFFSET -2.861649 0.000000 0.000000
										CHANNELS 3 Xrotation Yrotation Zrotation
										JOINT RightHandPinky3
										{
											OFFSET -2.863380 0.000000 0.000000
											CHANNELS 3 Xrotation Yrotation Zrotation
											End Site
											{
												OFFSET 0.843597 2.711159 0.369971
											}
										}
									}
								}
							}
							JOINT RSleeve
							{
								OFFSET -6.676277 -0.344902 -1.011730
								CHANNELS 3 Xrotation Yrotation Zrotation
								End Site
								{
									OFFSET 0.000000 14.885353 0.000000
								}
							}
						}
					}
				}
				JOINT Backpack
				{
					OFFSET 0.000000 -2.471497 36.677502
					CHANNELS 3 Xrotation Yrotation Zrotation
					End Site
					{
						OFFSET 0.000000 20.427315 0.000000
					}
				}
				JOINT Hood
				{
					OFFSET 0.000000 18.754097 -10.431000
					CHANNELS 3 Xrotation Yrotation Zrotation
					JOINT Hood1
					{
						OFFSET 0.000000 -5.011002 -7.685901
						CHANNELS 3 Xrotation Yrotation Zrotation
						End Site
						{
							OFFSET 0.000000 9.175140 0.000000
						}
					}
				}
				JOINT LHoodieString
				{
					OFFSET 5.250500 16.397697 3.089900
					CHANNELS 3 Xrotation Yrotation Zrotation
					JOINT LHoodieString1
					{
						OFFSET 0.257700 -6.364304 3.694600
						CHANNELS 3 Xrotation Yrotation Zrotation
						JOINT LHoodieString2
						{
							OFFSET 0.000000 -9.643799 2.679100
							CHANNELS 3 Xrotation Yrotation Zrotation
							End Site
							{
								OFFSET 0.000000 10.009018 0.000000
							}
						}
					}
				}
				JOINT RHoodieString
				{
					OFFSET -5.250500 16.397697 3.089900
					CHANNELS 3 Xrotation Yrotation Zrotation
					JOINT RHoodieString1
					{
						OFFSET -0.257700 -6.364304 3.694600
						CHANNELS 3 Xrotation Yrotation Zrotation
						JOINT RHoodieString2
						{
							OFFSET 0.000000 -9.643799 2.679100
							CHANNELS 3 Xrotation Yrotation Zrotation
							End Site
							{
								OFFSET 0.000000 10.009018 0.000000
							}
						}
					}
				}
			}
			JOINT LBackpack_Strap
			{
				OFFSET 15.223200 -7.719803 -6.610900
				CHANNELS 3 Xrotation Yrotation Zrotation
				End Site
				{
					OFFSET 0.000000 16.040596 0.000000
				}
			}
			JOINT RBackpack_Strap
			{
				OFFSET -15.223000 -7.719803 -6.610900
				CHANNELS 3 Xrotation Yrotation Zrotation
				End Site
				{
					OFFSET 0.000000 16.040596 0.000000
				}
			}
		}
	}
	JOINT BoyFacialAnim_Joint
	{
		OFFSET 1.000000 -82.208099 -1.550900
		CHANNELS 3 Xrotation Yrotation Zrotation
		End Site
		{
			OFFSET 0.000000 30.012791 0.000000
		}
	}
}
MOTION
Frames: 5
Frame Time: 0.033333
-54.296524 80.022263 6.930553 -19.406666 -62.571541 -11.797365 -0.000000 -0.000002 -0.000000 4.038166 18.060798 -2.204373 23.383868 -1.877527 5.431536 -17.296631 -0.675744 -2.089053 0.000000 -0.000001 -0.000000 0.000000 -0.000001 -0.000000 -0.000001 0.000000 0.000001 -41.583585 -41.387562 -31.199918 20.090066 8.774536 -10.069529 -13.616546 8.620392 7.148225 -0.000001 -0.000000 0.000000 -0.000001 -0.000000 0.000000 -0.000000 -0.000001 -0.000000 17.356325 11.197649 -2.074650 1.937530 0.369776 -6.508472 11.209645 -3.860159 -1.179169 0.274498 8.062157 -0.149544 -7.945810 22.296557 12.491760 -0.000000 -0.000000 -0.000001 -0.000000 -0.000000 -0.000001 -0.000000 -0.000000 -0.000001 -37.579595 -4.634281 1.667763 -38.377341 1.113744 -56.943314 -0.000155 -70.531914 -0.000164 -114.098576 2.031741 38.759278 4.774337 9.821925 3.611314 19.642683 -0.822850 7.358553 -0.000001 0.000002 0.000001 0.034762 4.316729 -37.617089 2.947838 5.082168 -60.208869 0.000003 0.000002 0.000000 0.401815 5.533987 -53.007589 3.410343 5.319293 -65.307919 0.000003 -0.000001 0.000002 0.439506 6.072197 -61.924305 4.058657 5.570683 -72.132228 0.000001 0.000002 0.000003 -6.336673 4.792175 -73.275922 3.308198 5.271356 -64.201237 0.000002 -0.000002 -0.000002 0.000001 -0.000000 -0.000001 -41.276889 -7.816341 -9.981241 -57.577313 59.770958 111.364069 -0.005322 91.065799 0.005267 -57.969223 -12.090266 -23.179516 8.238788 -4.544690 10.896286 21.605229 -18.161476 -18.383584 0.000001 0.000001 0.000001 -0.968637 1.704825 12.918959 0.748114 -2.533478 32.898289 -0.000001 -0.000000 -0.000003 3.341420 -7.145091 51.301510 6.307119 -4.355696 110.770396 0.000001 0.000001 -0.000005 -3.362437 -2.683087 57.674001 5.454119 -4.588621 99.863841 -0.000001 0.000000 -0.000001 -3.977570 -3.409610 65.266084 4.122283 -4.626428 83.397641 -0.000000 0.000000 -0.000002 -0.000000 -0.000003 -0.000001 -0.000000 0.000001 -0.000000 -0.000000 0.000001 -0.000000 -0.000000 0.000001 -0.000000 -0.000000 0.000001 -0.000000 -0.000000 0.000001 0.000001 -0.000002 -0.000001 0.000000 -0.000000 0.000001 -0.000000 -0.000000 0.000001 0.000001 -0.000002 -0.000001 0.000000 -0.000000 -0.000001 0.000001 -0.000000 -0.000001 0.000001 -0.000000 -0.000002 -0.000000 
-57.159386 79.700523 6.433990 -18.460938 -61.210270 -10.384032 -0.000001 -0.000000 0.000000 6.232393 18.591575 -1.628234 21.962535 -4.145570 6.991587 -17.974065 -0.045597 -4.597249 0.000000 -0.000002 -0.000000 0.000000 -0.000002 -0.000000 -0.000002 0.000002 0.000001 -43.227912 -39.163045 -32.897285 26.483630 6.238272 -10.571059 -16.220403 7.756472 6.624929 -0.000001 0.000001 0.000000 -0.000001 0.000001 0.000000 -0.000000 0.000001 -0.000000 16.950486 10.245980 -2.591143 1.877490 0.254077 -6.456647 11.151445 -3.962247 -1.112468 0.327687 8.007479 -0.028383 -8.031343 22.198897 12.577966 0.000001 0.000000 -0.000000 0.000001 0.000000 -0.000000 0.000001 0.000000 -0.000000 -37.579008 -4.708795 1.653582 -38.378809 0.699946 -57.149248 -0.000045 -70.173295 -0.000040 -113.908772 2.036199 38.608932 4.782357 9.827870 3.568919 19.660711 -0.756613 7.330390 -0.000004 0.000003 0.000002 -0.010000 4.248223 -37.445928 2.948222 5.082376 -60.213240 0.000001 -0.000000 -0.000002 0.382745 5.511035 -52.850573 3.411793 5.319978 -65.323629 0.000001 -0.000001 -0.000002 0.395653 6.043840 -61.842042 4.060769 5.571345 -72.153982 -0.000003 0.000001 -0.000000 -6.310235 4.779460 -73.173722 3.307889 5.271222 -64.197815 0.000003 0.000001 -0.000004 0.000001 -0.000000 0.000001 -41.286106 -7.891795 -10.069160 -56.873732 59.730373 110.944532 -0.003390 91.100510 0.003278 -57.943056 -11.825710 -23.081318 8.248330 -4.570664 10.899584 21.597852 -18.146027 -18.385363 0.000001 0.000000 0.000001 -0.964388 1.691937 12.903610 0.748114 -2.533480 32.898289 -0.000001 -0.000000 0.000002 3.349447 -7.143495 51.483948 6.307652 -4.355484 110.777445 -0.000000 0.000000 -0.000002 -3.355167 -2.687706 57.673919 5.453944 -4.588640 99.861853 0.000001 0.000001 -0.000001 -3.991245 -3.404678 65.275790 4.120938 -4.626260 83.380812 -0.000000 -0.000001 -0.000002 -0.000000 0.000001 -0.000001 0.000001 0.000000 0.000000 0.000001 0.000000 0.000000 0.000001 0.000000 0.000000 0.000001 0.000000 0.000000 0.000001 0.000000 0.000000 -0.000000 0.000000 0.000000 0.000001 0.000000 0.000000 0.000001 0.000000 0.000000 -0.000000 0.000000 0.000000 -0.000000 -0.000002 0.000000 -0.000000 -0.000002 0.000000 -0.000001 -0.000000 0.000000 
-60.224171 79.255814 5.799200 -18.014366 -59.698483 -9.566739 -0.000000 0.000001 -0.000000 7.780942 19.237890 -0.802589 22.081127 -5.809928 8.700439 -19.563147 0.141076 -4.903899 -0.000000 0.000003 -0.000000 -0.000000 0.000003 -0.000000 -0.000001 -0.000004 0.000002 -43.605266 -37.288465 -34.152209 31.451522 3.428031 -9.967088 -13.702314 7.862856 5.569975 0.000001 0.000001 0.000000 0.000001 0.000001 0.000000 0.000000 0.000001 -0.000000 16.743085 9.390749 -3.129954 1.786433 0.151749 -6.417107 11.061997 -4.054282 -1.060386 0.384026 7.940093 0.080112 -7.937993 21.983039 12.682819 0.000000 -0.000002 -0.000000 0.000000 -0.000002 -0.000000 0.000000 -0.000002 -0.000000 -37.580363 -4.826996 1.583946 -38.467537 0.335759 -57.329958 0.000093 -69.806453 0.000096 -113.668165 2.071748 38.529917 4.837567 9.940177 3.559922 19.726514 -0.515085 7.227226 -0.000001 0.000002 -0.000001 0.021359 4.306625 -37.740791 2.946720 5.081519 -60.196349 -0.000001 0.000000 -0.000002 0.382814 5.528552 -53.168043 3.424390 5.325722 -65.459351 0.000002 0.000001 0.000000 0.599576 6.176859 -62.266306 4.067998 5.573656 -72.228390 0.000000 0.000002 -0.000004 -6.204562 4.876119 -73.493478 3.311424 5.272906 -64.236290 -0.000000 -0.000001 -0.000004 0.000001 0.000001 -0.000001 -41.292134 -7.981320 -10.150141 -56.211108 59.637544 110.527938 -0.004315 91.126642 0.004190 -57.945897 -11.644064 -22.972773 8.260735 -4.603565 10.908157 21.587433 -18.126279 -18.389694 -0.000003 0.000000 -0.000002 -0.959031 1.678555 12.877315 0.748114 -2.533481 32.898286 -0.000001 -0.000001 -0.000000 3.361067 -7.144526 51.670354 6.307723 -4.355460 110.778292 0.000001 0.000001 -0.000002 -3.347444 -2.690634 57.659228 5.452988 -4.588817 99.849641 -0.000001 0.000000 0.000002 -4.006980 -3.396957 65.272764 4.117906 -4.625928 83.343218 0.000001 -0.000000 0.000002 -0.000002 0.000001 -0.000003 0.000001 0.000000 -0.000001 0.000001 0.000000 -0.000001 0.000001 0.000000 -0.000001 0.000001 0.000000 -0.000001 0.000001 0.000000 0.000001 -0.000000 0.000000 0.000000 0.000001 0.000000 -0.000001 0.000001 0.000000 0.000001 -0.000000 0.000000 0.000000 -0.000000 0.000001 -0.000000 -0.000000 0.000001 -0.000000 -0.000000 0.000001 -0.000000 
-63.343914 78.759430 5.090802 -18.758654 -58.474916 -10.444048 -0.000000 0.000003 0.000001 8.142198 19.953747 1.350346 24.782471 -5.796458 9.351022 -22.141952 -0.843264 -1.979291 -0.000000 -0.000002 -0.000000 -0.000000 -0.000002 -0.000000 0.000001 0.000000 0.000001 -41.417523 -36.120240 -33.294444 34.149115 2.005348 -9.215754 -9.025414 7.106556 4.498391 -0.000001 -0.000000 0.000000 -0.000001 -0.000000 0.000000 -0.000000 0.000002 -0.000000 17.139241 9.104792 -2.980656 1.657063 0.110964 -6.492257 10.929226 -4.110491 -1.130969 0.427348 7.884906 0.138812 -7.676340 21.826945 12.641624 0.000000 -0.000000 -0.000002 0.000000 -0.000000 -0.000002 0.000000 -0.000000 -0.000002 -37.581678 -4.895917 1.521541 -38.621250 -0.110488 -57.514810 -0.000024 -69.370447 -0.000029 -113.485560 2.073553 38.459702 4.855548 9.952640 3.463423 19.755680 -0.409350 7.182045 -0.000001 0.000003 0.000000 -0.018746 4.238135 -37.468307 2.944519 5.080273 -60.171330 -0.000000 -0.000001 -0.000002 0.412685 5.548683 -53.127701 3.431223 5.328826 -65.533022 -0.000001 -0.000002 -0.000000 0.630095 6.193686 -62.281442 4.061501 5.571596 -72.161577 0.000003 0.000002 -0.000002 -6.214101 4.848420 -73.370152 3.309201 5.271836 -64.212050 0.000001 -0.000001 -0.000002 0.000002 0.000003 -0.000002 -41.293695 -8.080949 -10.217184 -55.625662 59.487259 110.125189 -0.017995 91.145897 0.018048 -57.985185 -11.568866 -22.860052 8.275217 -4.641559 10.920470 21.574997 -18.103039 -18.396049 0.000000 -0.000000 0.000002 -0.952863 1.665827 12.840287 0.748113 -2.533482 32.898289 -0.000001 0.000000 0.000002 3.373563 -7.146860 51.842556 6.306915 -4.355782 110.767480 -0.000000 -0.000000 0.000001 -3.342939 -2.689064 57.626873 5.451200 -4.589126 99.827545 0.000000 -0.000001 0.000005 -4.023927 -3.386164 65.252800 4.113044 -4.625377 83.283106 0.000000 -0.000000 0.000002 0.000001 0.000000 0.000001 0.000002 0.000001 -0.000001 0.000002 0.000001 -0.000001 0.000002 0.000001 -0.000001 0.000002 0.000001 -0.000001 0.000002 0.000001 -0.000001 -0.000000 -0.000003 0.000001 0.000002 0.000001 -0.000001 0.000002 0.000001 -0.000001 -0.000000 -0.000003 0.000001 0.000001 -0.000001 -0.000000 0.000001 -0.000001 -0.000000 -0.000000 0.000003 0.000001 
-66.442207 78.420868 4.354106 -20.228666 -57.767336 -12.640627 -0.000000 -0.000001 -0.000001 6.968392 19.105649 5.098881 29.206528 -3.984533 9.500402 -21.754402 -2.188197 -1.972134 0.000000 0.000001 -0.000001 0.000000 0.000001 -0.000000 0.000001 -0.000002 0.000002 -37.470425 -35.571864 -31.095512 35.841421 2.035730 -8.047526 -5.519368 4.906360 4.426738 0.000000 -0.000000 -0.000000 0.000000 -0.000000 -0.000000 0.000000 0.000002 0.000000 17.905244 9.251023 -1.921157 1.568674 0.105570 -6.660214 10.833691 -4.152359 -1.297586 0.556629 7.895211 0.139536 -7.469648 22.035058 12.434768 0.000001 0.000001 -0.000000 0.000001 0.000001 -0.000000 0.000001 0.000001 -0.000000 -37.576426 -4.802865 1.618984 -38.841199 -0.684011 -57.863013 0.000140 -68.786384 0.000156 -113.406945 2.014391 38.317932 4.828532 9.922188 3.563852 19.764414 -0.377863 7.168628 -0.000002 -0.000001 0.000002 -0.097222 4.104953 -36.994712 2.943817 5.079867 -60.163496 -0.000001 -0.000000 -0.000004 0.393242 5.518965 -52.850317 3.436944 5.331394 -65.594521 0.000001 0.000001 0.000000 0.522033 6.121839 -62.022441 4.048819 5.567518 -72.030936 0.000003 -0.000001 -0.000001 -6.294115 4.788533 -73.194097 3.304645 5.269655 -64.162510 -0.000000 0.000001 0.000002 0.000001 -0.000003 0.000001 -41.290109 -8.185596 -10.264747 -55.149041 59.279198 109.746585 0.013219 91.162016 -0.013061 -58.066047 -11.614977 -22.749760 8.290838 -4.682041 10.935900 21.562292 -18.077685 -18.401390 -0.000006 0.000000 0.000002 -0.946365 1.654910 12.794847 0.748114 -2.533478 32.898286 -0.000000 -0.000000 0.000005 3.384475 -7.149282 51.983603 6.305097 -4.356470 110.743615 0.000002 0.000000 0.000005 -3.341276 -2.683136 57.575524 5.448631 -4.589566 99.795238 -0.000000 0.000000 0.000002 -4.040723 -3.372660 65.213103 4.106489 -4.624584 83.201581 0.000001 -0.000000 0.000002 -0.000000 -0.000001 -0.000001 -0.000000 -0.000001 -0.000000 -0.000000 -0.000001 -0.000000 -0.000000 -0.000001 -0.000000 -0.000000 -0.000001 -0.000000 -0.000000 -0.000001 -0.000000 0.000001 -0.000001 -0.000000 -0.000000 -0.000001 -0.000000 -0.000000 -0.000001 -0.000000 0.000001 -0.000001 -0.000000 -0.000000 0.000000 -0.000000 -0.000000 0.000000 -0.000000 -0.000000 -0.000001 -0.000001 
